<svg clip-rule="evenodd" fill-rule="evenodd" height="1.707in" image-rendering="optimizeQuality" shape-rendering="geometricPrecision" text-rendering="geometricPrecision" viewBox="0 0 1707 1707" width="1.707in" xmlns="http://www.w3.org/2000/svg"><g id="Layer_x0020_1"><path d="m1417 1489h-196c-10 0-20-6-25-15-31-49-66-106-103-164-44-72-89-145-128-207h-418c-85 0-155-70-155-155v-419c0-86 70-156 155-156 86 0 156 70 156 156v36h203c56 0 102 46 102 102s-46 102-102 102h-203v79h319c25 0 49 14 63 37l244 399h88c57 0 102 46 102 103 0 56-45 102-102 102zm-179-60h179c23 0 42-19 42-43 0-23-18-42-42-42h-105c-10 0-20-5-25-14l-253-414c-1-2-6-8-12-8h-349c-17 0-30-14-30-30v-139c0-16 13-30 30-30h233c23 0 42-19 42-42s-19-42-42-42h-233c-17 0-30-14-30-30v-66c0-53-43-96-96-96-52 0-95 43-95 96v419c0 52 43 95 95 95h435c10 0 20 5 25 14 41 65 90 144 137 221 33 53 65 105 94 151z" fill="#000040"/><path d="m547 326c-89 0-162-73-162-163s73-163 162-163c90 0 163 73 163 163 0 89-73 163-163 163zm0-266c-56 0-102 46-102 103 0 56 46 103 102 103 57 0 103-47 103-103 0-57-46-103-103-103z" fill="#000040"/><path d="m422 1707c-233 0-422-190-422-422 0-186 119-348 296-403 10-2 19-1 27 5 8 5 12 14 12 24v151c0 11-6 21-16 26-73 39-119 114-119 197 0 122 99 222 222 222 122 0 222-100 222-222 0-29-6-57-16-84-4-9-3-19 3-28 5-8 15-13 25-13h146c14 0 26 9 29 23 9 33 13 68 13 102 0 232-190 422-422 422z" fill="#e74c3c"/><g fill="#000040"><path d="m1346 721c-199 0-360-162-360-361 0-198 161-360 360-360s360 162 360 360c0 199-161 361-360 361zm0-661c-165 0-300 135-300 300 0 166 135 301 300 301 166 0 300-135 300-301 0-165-134-300-300-300z"/><path d="m1346 721c-102 0-179-155-179-361 0-205 77-360 179-360s179 155 179 360c0 206-77 361-179 361zm0-661c-56 0-119 128-119 300s63 301 119 301 119-129 119-301-63-300-119-300z"/><path d="m1346 539c-205 0-360-77-360-179s155-179 360-179c206 0 360 77 360 179s-154 179-360 179zm0-298c-172 0-300 63-300 119s128 119 300 119 300-63 300-119-128-119-300-119z"/></g></g></svg>