<?xml version="1.0" encoding="UTF-8" standalone="no"?>
<!-- Created with Inkscape (http://www.inkscape.org/) -->

<svg
   width="10.386748mm"
   height="10.386751mm"
   viewBox="0 0 10.386748 10.386751"
   version="1.1"
   id="svg1665"
   inkscape:version="1.2.2 (b0a8486, 2022-12-01)"
   sodipodi:docname="share-button-green.svg"
   xmlns:inkscape="http://www.inkscape.org/namespaces/inkscape"
   xmlns:sodipodi="http://sodipodi.sourceforge.net/DTD/sodipodi-0.dtd"
   xmlns:xlink="http://www.w3.org/1999/xlink"
   xmlns="http://www.w3.org/2000/svg"
   xmlns:svg="http://www.w3.org/2000/svg">
  <sodipodi:namedview
     id="namedview1667"
     pagecolor="#ffffff"
     bordercolor="#000000"
     borderopacity="0.25"
     inkscape:showpageshadow="2"
     inkscape:pageopacity="0.0"
     inkscape:pagecheckerboard="0"
     inkscape:deskcolor="#d1d1d1"
     inkscape:document-units="mm"
     showgrid="false"
     inkscape:zoom="0.81328787"
     inkscape:cx="106.3584"
     inkscape:cy="137.71262"
     inkscape:window-width="1680"
     inkscape:window-height="1022"
     inkscape:window-x="0"
     inkscape:window-y="28"
     inkscape:window-maximized="0"
     inkscape:current-layer="layer1" />
  <defs
     id="defs1662">
    <clipPath
       id="SVGID_00000145757738951531138990000000380279691443985799_">
		<use
   xlink:href="#SVGID_00000085229585791176157350000007157532965918434432_"
   style="overflow:visible"
   id="use51" />

	</clipPath>
    <clipPath
       id="clipPath922">
		<use
   xlink:href="#SVGID_00000085229585791176157350000007157532965918434432_"
   style="overflow:visible"
   id="use920" />

	</clipPath>
    <path
       id="SVGID_00000085229585791176157350000007157532965918434432_"
       d="m 142.481,151.799 c 0,-10.84 -8.788,-19.628 -19.629,-19.628 -10.84,0 -19.628,8.788 -19.628,19.628 0,10.84 8.788,19.629 19.628,19.629 10.841,0 19.629,-8.789 19.629,-19.629 z" />
  </defs>
  <g
     inkscape:label="Ebene 1"
     inkscape:groupmode="layer"
     id="layer1"
     transform="translate(-27.526965,-21.23459)">
    <path
       style="fill:#6bb446;stroke-width:0.264583"
       d="m 37.913713,26.42783 c 0,-2.86808 -2.325158,-5.19324 -5.193506,-5.19324 -2.868083,0 -5.193242,2.32516 -5.193242,5.19324 0,2.86809 2.325159,5.19351 5.193242,5.19351 2.868348,0 5.193506,-2.32542 5.193506,-5.19351 z"
       id="path8" />
    <g
       id="g58"
       transform="matrix(0.26458333,0,0,0.26458333,0.21561553,-13.73565)">
	<defs
   id="defs49">
		<path
   id="path2550"
   d="m 142.481,151.799 c 0,-10.84 -8.788,-19.628 -19.629,-19.628 -10.84,0 -19.628,8.788 -19.628,19.628 0,10.84 8.788,19.629 19.628,19.629 10.841,0 19.629,-8.789 19.629,-19.629 z" />

	</defs>

	<clipPath
   id="clipPath931">
		<use
   xlink:href="#SVGID_00000085229585791176157350000007157532965918434432_"
   style="overflow:visible"
   id="use929" />

	</clipPath>

	<path
   style="fill:#5fa746"
   d="m 151.361,177.153 c -0.064,-0.069 -0.131,-0.136 -0.2,-0.2 -0.064,-0.069 -0.131,-0.136 -0.2,-0.2 -0.064,-0.069 -0.131,-0.136 -0.2,-0.2 -0.064,-0.069 -0.131,-0.136 -0.2,-0.2 -0.064,-0.069 -0.131,-0.136 -0.2,-0.2 -0.064,-0.069 -0.131,-0.136 -0.2,-0.2 -0.064,-0.069 -0.131,-0.136 -0.2,-0.2 -0.065,-0.069 -0.131,-0.136 -0.2,-0.2 -0.064,-0.069 -0.131,-0.136 -0.2,-0.2 -0.064,-0.069 -0.131,-0.136 -0.2,-0.2 -0.064,-0.069 -0.131,-0.136 -0.2,-0.2 -0.064,-0.069 -0.131,-0.136 -0.2,-0.2 -0.064,-0.069 -0.131,-0.136 -0.2,-0.2 -0.064,-0.069 -0.131,-0.136 -0.2,-0.2 -0.064,-0.069 -0.131,-0.136 -0.2,-0.2 -0.064,-0.069 -0.131,-0.136 -0.2,-0.2 -0.064,-0.069 -0.131,-0.136 -0.2,-0.2 -0.064,-0.069 -0.131,-0.136 -0.2,-0.2 -0.064,-0.069 -0.131,-0.136 -0.2,-0.2 -0.064,-0.069 -0.131,-0.136 -0.2,-0.2 -0.064,-0.069 -0.131,-0.136 -0.2,-0.2 -0.064,-0.069 -0.131,-0.136 -0.2,-0.2 -0.064,-0.069 -0.131,-0.136 -0.2,-0.2 -0.064,-0.069 -0.131,-0.136 -0.2,-0.2 -0.064,-0.069 -0.131,-0.136 -0.2,-0.2 -0.064,-0.069 -0.131,-0.136 -0.2,-0.2 -0.064,-0.069 -0.131,-0.136 -0.2,-0.2 -0.064,-0.069 -0.131,-0.136 -0.2,-0.2 -0.064,-0.069 -0.131,-0.136 -0.2,-0.2 -0.064,-0.069 -0.131,-0.136 -0.2,-0.2 -0.064,-0.069 -0.131,-0.136 -0.2,-0.2 -0.065,-0.069 -0.131,-0.136 -0.2,-0.2 -0.064,-0.069 -0.131,-0.136 -0.2,-0.2 -0.064,-0.069 -0.131,-0.136 -0.2,-0.2 -0.064,-0.069 -0.131,-0.136 -0.2,-0.2 -0.064,-0.069 -0.131,-0.136 -0.2,-0.2 -0.064,-0.069 -0.131,-0.136 -0.2,-0.2 -0.064,-0.069 -0.131,-0.136 -0.2,-0.2 -0.026,-0.028 -0.047,-0.061 -0.073,-0.089 l 2.534,-1.278 c 0.679,0.586 1.561,0.943 2.525,0.943 2.135,0 3.863,-1.732 3.863,-3.865 0,-1.118 -0.481,-2.117 -1.241,-2.822 -0.064,-0.069 -0.131,-0.136 -0.2,-0.2 -0.064,-0.069 -0.13,-0.136 -0.2,-0.2 -0.064,-0.069 -0.131,-0.136 -0.2,-0.2 -0.064,-0.069 -0.13,-0.136 -0.2,-0.2 -0.064,-0.069 -0.131,-0.136 -0.2,-0.2 -0.064,-0.069 -0.13,-0.136 -0.2,-0.2 -0.064,-0.069 -0.131,-0.136 -0.2,-0.2 -0.065,-0.069 -0.13,-0.136 -0.2,-0.2 -0.064,-0.069 -0.131,-0.136 -0.2,-0.2 -0.064,-0.069 -0.13,-0.136 -0.2,-0.2 -0.064,-0.069 -0.131,-0.136 -0.2,-0.2 -0.064,-0.069 -0.13,-0.136 -0.2,-0.2 -0.064,-0.069 -0.131,-0.136 -0.2,-0.2 -0.064,-0.069 -0.13,-0.136 -0.2,-0.2 -0.064,-0.069 -0.131,-0.136 -0.2,-0.2 -0.064,-0.069 -0.13,-0.136 -0.2,-0.2 -0.064,-0.069 -0.131,-0.136 -0.2,-0.2 -0.064,-0.069 -0.13,-0.136 -0.2,-0.2 -0.064,-0.069 -0.131,-0.136 -0.2,-0.2 -0.064,-0.069 -0.13,-0.136 -0.2,-0.2 -0.064,-0.069 -0.131,-0.136 -0.2,-0.2 -0.064,-0.069 -0.13,-0.136 -0.2,-0.2 -0.064,-0.069 -0.131,-0.136 -0.2,-0.2 -0.064,-0.069 -0.13,-0.136 -0.2,-0.2 -0.064,-0.069 -0.131,-0.136 -0.2,-0.2 -0.064,-0.069 -0.13,-0.136 -0.2,-0.2 -0.064,-0.069 -0.131,-0.136 -0.2,-0.2 -0.064,-0.069 -0.13,-0.136 -0.2,-0.2 -0.064,-0.069 -0.131,-0.136 -0.2,-0.2 -0.064,-0.069 -0.13,-0.136 -0.2,-0.2 -0.064,-0.069 -0.131,-0.136 -0.2,-0.2 -0.065,-0.069 -0.13,-0.136 -0.2,-0.2 -0.064,-0.069 -0.131,-0.136 -0.2,-0.2 -0.064,-0.069 -0.13,-0.136 -0.2,-0.2 -0.064,-0.069 -0.131,-0.136 -0.2,-0.2 -0.064,-0.069 -0.13,-0.136 -0.2,-0.2 -0.064,-0.069 -0.131,-0.136 -0.2,-0.2 -0.064,-0.069 -0.13,-0.136 -0.2,-0.2 -0.064,-0.069 -0.131,-0.136 -0.2,-0.2 -0.064,-0.069 -0.13,-0.136 -0.2,-0.2 -0.064,-0.069 -0.131,-0.136 -0.2,-0.2 -0.064,-0.069 -0.13,-0.136 -0.2,-0.2 -0.064,-0.069 -0.131,-0.136 -0.2,-0.2 -0.064,-0.069 -0.13,-0.136 -0.2,-0.2 -0.064,-0.069 -0.131,-0.136 -0.2,-0.2 -0.064,-0.069 -0.13,-0.136 -0.2,-0.2 -0.064,-0.069 -0.131,-0.136 -0.2,-0.2 -0.064,-0.069 -0.13,-0.136 -0.2,-0.2 -0.064,-0.069 -0.131,-0.136 -0.2,-0.2 -0.065,-0.069 -0.13,-0.136 -0.2,-0.2 -0.064,-0.069 -0.131,-0.136 -0.2,-0.2 -0.064,-0.069 -0.13,-0.136 -0.2,-0.2 -0.064,-0.069 -0.131,-0.136 -0.2,-0.2 -0.065,-0.069 -0.13,-0.136 -0.2,-0.2 -0.064,-0.069 -0.131,-0.136 -0.2,-0.2 -0.064,-0.069 -0.13,-0.136 -0.2,-0.2 -0.064,-0.069 -0.131,-0.136 -0.2,-0.2 -0.064,-0.069 -0.13,-0.136 -0.2,-0.2 -0.064,-0.069 -0.131,-0.136 -0.2,-0.2 -0.064,-0.069 -0.13,-0.136 -0.2,-0.2 -0.064,-0.069 -0.131,-0.136 -0.2,-0.2 -0.064,-0.069 -0.13,-0.136 -0.2,-0.2 -0.064,-0.069 -0.131,-0.136 -0.2,-0.2 -0.064,-0.069 -0.13,-0.136 -0.2,-0.2 -0.064,-0.069 -0.131,-0.136 -0.2,-0.2 -0.064,-0.069 -0.13,-0.136 -0.2,-0.2 -0.064,-0.069 -0.131,-0.136 -0.2,-0.2 -0.064,-0.069 -0.13,-0.136 -0.2,-0.2 -0.064,-0.069 -0.131,-0.136 -0.2,-0.2 -0.064,-0.069 -0.13,-0.136 -0.2,-0.2 -0.064,-0.069 -0.131,-0.136 -0.2,-0.2 -0.064,-0.069 -0.13,-0.136 -0.2,-0.2 -0.064,-0.069 -0.131,-0.136 -0.2,-0.2 -0.064,-0.069 -0.13,-0.136 -0.2,-0.2 -0.064,-0.069 -0.131,-0.136 -0.2,-0.2 -0.064,-0.069 -0.13,-0.136 -0.2,-0.2 -0.064,-0.069 -0.131,-0.136 -0.2,-0.2 -0.064,-0.069 -0.13,-0.136 -0.2,-0.2 -0.064,-0.069 -0.131,-0.136 -0.2,-0.2 -0.064,-0.069 -0.13,-0.136 -0.2,-0.2 -0.064,-0.069 -0.131,-0.136 -0.2,-0.2 -0.064,-0.069 -0.13,-0.136 -0.2,-0.2 -0.064,-0.069 -0.131,-0.136 -0.2,-0.2 -0.064,-0.069 -0.13,-0.136 -0.2,-0.2 -0.064,-0.069 -0.131,-0.136 -0.2,-0.2 -0.064,-0.069 -0.13,-0.136 -0.2,-0.2 -0.064,-0.069 -0.131,-0.136 -0.2,-0.2 -0.064,-0.069 -0.13,-0.136 -0.2,-0.2 -0.064,-0.069 -0.131,-0.136 -0.2,-0.2 -0.064,-0.069 -0.13,-0.136 -0.2,-0.2 -0.064,-0.069 -0.131,-0.136 -0.2,-0.2 -0.064,-0.069 -0.13,-0.136 -0.2,-0.2 -0.064,-0.069 -0.131,-0.136 -0.2,-0.2 -0.064,-0.069 -0.13,-0.136 -0.2,-0.2 -0.064,-0.069 -0.131,-0.136 -0.2,-0.2 -0.065,-0.069 -0.13,-0.136 -0.2,-0.2 -0.064,-0.069 -0.131,-0.136 -0.2,-0.2 -0.064,-0.069 -0.13,-0.136 -0.2,-0.2 -0.064,-0.069 -0.131,-0.136 -0.2,-0.2 -0.705,-0.759 -1.704,-1.241 -2.822,-1.241 -2.134,0 -3.864,1.73 -3.864,3.863 0,0.1 0.008,0.196 0.014,0.293 l -8.222,4.145 c -0.677,-0.586 -1.56,-0.942 -2.523,-0.942 -2.135,0 -3.865,1.73 -3.865,3.864 0,1.118 0.482,2.117 1.241,2.822 0.064,0.069 0.131,0.136 0.2,0.2 0.064,0.069 0.131,0.136 0.2,0.2 0.064,0.069 0.131,0.136 0.2,0.2 0.064,0.069 0.131,0.136 0.2,0.2 0.064,0.069 0.131,0.136 0.2,0.2 0.064,0.069 0.131,0.136 0.2,0.2 0.064,0.069 0.131,0.136 0.2,0.2 0.064,0.069 0.131,0.136 0.2,0.2 0.064,0.069 0.131,0.136 0.2,0.2 0.064,0.069 0.131,0.136 0.2,0.2 0.064,0.069 0.131,0.136 0.2,0.2 0.064,0.069 0.131,0.136 0.2,0.2 0.064,0.069 0.131,0.136 0.2,0.2 0.064,0.069 0.131,0.136 0.2,0.2 0.064,0.069 0.131,0.136 0.2,0.2 0.064,0.069 0.131,0.136 0.2,0.2 0.064,0.069 0.131,0.136 0.2,0.2 0.064,0.069 0.131,0.136 0.2,0.2 0.064,0.069 0.131,0.136 0.2,0.2 0.064,0.069 0.131,0.136 0.2,0.2 0.064,0.069 0.131,0.136 0.2,0.2 0.065,0.069 0.131,0.136 0.2,0.2 0.064,0.069 0.131,0.136 0.2,0.2 0.064,0.069 0.131,0.136 0.2,0.2 0.064,0.069 0.131,0.136 0.2,0.2 0.064,0.069 0.131,0.136 0.2,0.2 0.064,0.069 0.131,0.136 0.2,0.2 0.064,0.069 0.131,0.136 0.2,0.2 0.064,0.069 0.131,0.136 0.2,0.2 0.064,0.069 0.131,0.136 0.2,0.2 0.064,0.069 0.131,0.136 0.2,0.2 0.064,0.069 0.131,0.136 0.2,0.2 0.064,0.069 0.131,0.136 0.2,0.2 0.064,0.069 0.131,0.136 0.2,0.2 0.064,0.069 0.131,0.136 0.2,0.2 0.064,0.069 0.131,0.136 0.2,0.2 0.064,0.069 0.131,0.136 0.2,0.2 0.064,0.069 0.131,0.136 0.2,0.2 0.064,0.069 0.131,0.136 0.2,0.2 0.064,0.069 0.131,0.136 0.2,0.2 0.064,0.069 0.131,0.136 0.2,0.2 0.064,0.069 0.131,0.136 0.2,0.2 0.064,0.069 0.131,0.136 0.2,0.2 0.064,0.069 0.131,0.136 0.2,0.2 0.064,0.069 0.131,0.136 0.2,0.2 0.064,0.069 0.131,0.136 0.2,0.2 0.064,0.069 0.131,0.136 0.2,0.2 0.064,0.069 0.131,0.136 0.2,0.2 0.064,0.069 0.131,0.136 0.2,0.2 0.064,0.069 0.131,0.136 0.2,0.2 0.064,0.069 0.131,0.136 0.2,0.2 0.064,0.069 0.131,0.136 0.2,0.2 0.064,0.069 0.131,0.136 0.2,0.2 0.064,0.069 0.131,0.136 0.2,0.2 0.065,0.069 0.131,0.136 0.2,0.2 0.064,0.069 0.131,0.136 0.2,0.2 0.064,0.069 0.131,0.136 0.2,0.2 0.064,0.069 0.131,0.136 0.2,0.2 0.064,0.069 0.131,0.136 0.2,0.2 0.064,0.069 0.131,0.136 0.2,0.2 0.064,0.069 0.131,0.136 0.2,0.2 0.064,0.069 0.131,0.136 0.2,0.2 0.065,0.069 0.131,0.136 0.2,0.2 0.064,0.069 0.131,0.136 0.2,0.2 0.064,0.069 0.131,0.136 0.2,0.2 0.064,0.069 0.131,0.136 0.2,0.2 0.064,0.069 0.131,0.136 0.2,0.2 0.064,0.069 0.131,0.136 0.2,0.2 0.064,0.069 0.131,0.136 0.2,0.2 0.064,0.069 0.131,0.136 0.2,0.2 0.064,0.069 0.131,0.136 0.2,0.2 0.064,0.069 0.131,0.136 0.2,0.2 0.064,0.069 0.131,0.136 0.2,0.2 0.064,0.069 0.131,0.136 0.2,0.2 0.064,0.069 0.131,0.136 0.2,0.2 0.064,0.069 0.131,0.136 0.2,0.2 0.064,0.069 0.131,0.136 0.2,0.2 0.064,0.069 0.131,0.136 0.2,0.2 0.064,0.069 0.131,0.136 0.2,0.2 0.064,0.069 0.131,0.136 0.2,0.2 0.064,0.069 0.131,0.136 0.2,0.2 0.064,0.069 0.131,0.136 0.2,0.2 0.064,0.069 0.131,0.136 0.2,0.2 0.064,0.069 0.131,0.136 0.2,0.2 0.064,0.069 0.131,0.136 0.2,0.2 0.064,0.069 0.131,0.136 0.2,0.2 0.064,0.069 0.131,0.136 0.2,0.2 0.064,0.069 0.131,0.136 0.2,0.2 0.064,0.069 0.131,0.136 0.2,0.2 0.064,0.069 0.131,0.136 0.2,0.2 0.064,0.069 0.131,0.136 0.2,0.2 0.064,0.069 0.131,0.136 0.2,0.2 0.064,0.069 0.131,0.136 0.2,0.2 0.064,0.069 0.131,0.136 0.2,0.2 0.064,0.069 0.131,0.136 0.2,0.2 0.064,0.069 0.131,0.136 0.2,0.2 0.064,0.069 0.131,0.136 0.2,0.2 0.064,0.069 0.131,0.136 0.2,0.2 0.064,0.069 0.131,0.136 0.2,0.2 0.706,0.759 1.705,1.241 2.824,1.241 0.953,0 1.824,-0.347 2.498,-0.92 l 4.498,2.269 c 0.056,0.058 0.113,0.112 0.173,0.167 0.064,0.069 0.13,0.135 0.2,0.199 0.064,0.07 0.13,0.136 0.2,0.201 0.064,0.069 0.13,0.135 0.2,0.199 0.064,0.07 0.13,0.136 0.2,0.201 0.064,0.069 0.13,0.135 0.2,0.199 0.064,0.07 0.13,0.136 0.2,0.201 0.064,0.069 0.13,0.135 0.2,0.199 0.064,0.07 0.13,0.136 0.2,0.201 0.064,0.069 0.13,0.135 0.2,0.199 0.064,0.07 0.13,0.136 0.2,0.201 0.064,0.069 0.13,0.135 0.2,0.199 0.064,0.07 0.13,0.136 0.2,0.201 0.064,0.069 0.13,0.135 0.2,0.199 0.064,0.07 0.13,0.136 0.2,0.201 0.064,0.069 0.13,0.135 0.2,0.199 0.064,0.07 0.13,0.136 0.2,0.201 0.064,0.069 0.13,0.135 0.2,0.199 0.065,0.07 0.13,0.136 0.2,0.201 0.064,0.069 0.13,0.135 0.2,0.199 0.064,0.07 0.13,0.136 0.2,0.201 0.064,0.069 0.13,0.135 0.2,0.199 0.064,0.07 0.13,0.136 0.2,0.201 0.064,0.069 0.13,0.135 0.2,0.199 0.705,0.76 1.704,1.242 2.822,1.242 2.135,0 3.863,-1.73 3.863,-3.865 -0.004,-1.121 -0.486,-2.12 -1.245,-2.826 z"
   clip-path="url(#SVGID_00000145757738951531138990000000380279691443985799_)"
   id="path54" />

	<path
   style="fill:#ffffff"
   d="m 128.72,156.093 c -0.976,0 -1.868,0.366 -2.549,0.966 l -8.2,-4.133 c 0.01,-0.109 0.017,-0.218 0.017,-0.328 0,-0.099 -0.007,-0.196 -0.015,-0.292 l 8.223,-4.146 c 0.679,0.586 1.561,0.943 2.524,0.943 2.135,0 3.863,-1.731 3.863,-3.865 0,-2.134 -1.729,-3.863 -3.863,-3.863 -2.134,0 -3.864,1.73 -3.864,3.863 0,0.1 0.008,0.196 0.014,0.293 l -8.222,4.145 c -0.677,-0.586 -1.56,-0.942 -2.523,-0.942 -2.135,0 -3.865,1.73 -3.865,3.864 0,2.135 1.73,3.863 3.865,3.863 0.953,0 1.824,-0.347 2.498,-0.92 l 8.247,4.159 -0.014,0.257 c 0,2.135 1.73,3.865 3.864,3.865 2.135,0 3.863,-1.73 3.863,-3.865 0,-2.134 -1.729,-3.864 -3.863,-3.864"
   clip-path="url(#SVGID_00000145757738951531138990000000380279691443985799_)"
   id="path56" />

</g>
  </g>
</svg>
